<svg width="1200" height="800" viewBox="0 0 1200 800" fill="none" xmlns="http://www.w3.org/2000/svg">
  <defs>
    <linearGradient id="bg" x1="0" y1="0" x2="1200" y2="800" gradientUnits="userSpaceOnUse">
      <stop stop-color="#7C5CFF" stop-opacity="0.35"/>
      <stop offset="0.55" stop-color="#00D6FF" stop-opacity="0.22"/>
      <stop offset="1" stop-color="#2EE59D" stop-opacity="0.14"/>
    </linearGradient>
    <linearGradient id="car" x1="260" y1="420" x2="980" y2="420" gradientUnits="userSpaceOnUse">
      <stop stop-color="#EAF0FF" stop-opacity="0.95"/>
      <stop offset="1" stop-color="#EAF0FF" stop-opacity="0.75"/>
    </linearGradient>
    <filter id="blur" x="-20%" y="-20%" width="140%" height="140%">
      <feGaussianBlur stdDeviation="18"/>
    </filter>
  </defs>

  <rect width="1200" height="800" rx="44" fill="#070A12"/>
  <rect width="1200" height="800" rx="44" fill="url(#bg)"/>

  <circle cx="250" cy="220" r="160" fill="#7C5CFF" fill-opacity="0.22" filter="url(#blur)"/>
  <circle cx="960" cy="260" r="190" fill="#00D6FF" fill-opacity="0.16" filter="url(#blur)"/>
  <circle cx="720" cy="620" r="220" fill="#2EE59D" fill-opacity="0.10" filter="url(#blur)"/>

  <path d="M330 470c40-80 90-120 190-120h170c105 0 155 36 210 110l40 10c20 6 30 18 30 36v48c0 18-12 30-30 30h-35c-10 0-18-8-18-18 0-43-35-78-78-78s-78 35-78 78c0 10-8 18-18 18H520c-10 0-18-8-18-18 0-43-35-78-78-78s-78 35-78 78c0 10-8 18-18 18h-52c-18 0-30-12-30-30v-40c0-22 12-38 34-46l50-18z" fill="url(#car)"/>
  <path d="M545 372h120c65 0 98 16 140 70H520c8-44 18-70 25-70z" fill="#070A12" fill-opacity="0.55"/>
  <rect x="320" y="486" width="560" height="12" rx="6" fill="#070A12" fill-opacity="0.4"/>
  <circle cx="420" cy="570" r="58" fill="#070A12" fill-opacity="0.75"/>
  <circle cx="420" cy="570" r="34" fill="#EAF0FF" fill-opacity="0.85"/>
  <circle cx="780" cy="570" r="58" fill="#070A12" fill-opacity="0.75"/>
  <circle cx="780" cy="570" r="34" fill="#EAF0FF" fill-opacity="0.85"/>

  <text x="70" y="710" fill="#EAF0FF" fill-opacity="0.75" font-family="Inter, Arial, sans-serif" font-size="44" font-weight="700">
    SK Tours &amp; Travels
  </text>
  <text x="70" y="760" fill="#EAF0FF" fill-opacity="0.55" font-family="Inter, Arial, sans-serif" font-size="22" font-weight="500">
    Car photo placeholder
  </text>
</svg>
