<svg width="1200" height="800" viewBox="0 0 1200 800" fill="none" xmlns="http://www.w3.org/2000/svg">
  <defs>
    <linearGradient id="bg" x1="0" y1="0" x2="1200" y2="800" gradientUnits="userSpaceOnUse">
      <stop stop-color="#00D6FF" stop-opacity="0.22"/>
      <stop offset="0.55" stop-color="#7C5CFF" stop-opacity="0.26"/>
      <stop offset="1" stop-color="#2EE59D" stop-opacity="0.12"/>
    </linearGradient>
    <linearGradient id="card" x1="360" y1="220" x2="840" y2="640" gradientUnits="userSpaceOnUse">
      <stop stop-color="#EAF0FF" stop-opacity="0.95"/>
      <stop offset="1" stop-color="#EAF0FF" stop-opacity="0.75"/>
    </linearGradient>
    <filter id="blur" x="-20%" y="-20%" width="140%" height="140%">
      <feGaussianBlur stdDeviation="18"/>
    </filter>
  </defs>

  <rect width="1200" height="800" rx="44" fill="#070A12"/>
  <rect width="1200" height="800" rx="44" fill="url(#bg)"/>

  <circle cx="260" cy="260" r="170" fill="#00D6FF" fill-opacity="0.14" filter="url(#blur)"/>
  <circle cx="920" cy="240" r="190" fill="#7C5CFF" fill-opacity="0.18" filter="url(#blur)"/>
  <circle cx="740" cy="650" r="220" fill="#2EE59D" fill-opacity="0.10" filter="url(#blur)"/>

  <rect x="320" y="170" width="560" height="470" rx="34" fill="rgba(255,255,255,0.04)" stroke="rgba(255,255,255,0.12)" stroke-width="2"/>
  <circle cx="600" cy="330" r="96" fill="url(#card)"/>
  <path d="M460 602c10-96 78-150 140-150s130 54 140 150" stroke="#EAF0FF" stroke-opacity="0.75" stroke-width="26" stroke-linecap="round"/>
  <path d="M560 320c10 16 24 24 40 24s30-8 40-24" stroke="#070A12" stroke-opacity="0.55" stroke-width="10" stroke-linecap="round"/>
  <circle cx="566" cy="300" r="10" fill="#070A12" fill-opacity="0.55"/>
  <circle cx="634" cy="300" r="10" fill="#070A12" fill-opacity="0.55"/>

  <text x="70" y="710" fill="#EAF0FF" fill-opacity="0.75" font-family="Inter, Arial, sans-serif" font-size="44" font-weight="700">
    SK Tours &amp; Travels
  </text>
  <text x="70" y="760" fill="#EAF0FF" fill-opacity="0.55" font-family="Inter, Arial, sans-serif" font-size="22" font-weight="500">
    Driver photo placeholder
  </text>
</svg>
